<svg width="24" height="24" viewBox="0 0 24 24" fill="none" xmlns="http://www.w3.org/2000/svg">
<path fill-rule="evenodd" clip-rule="evenodd" d="M6 7C4.89543 7 4 7.89543 4 9V18H18C19.1046 18 20 17.1046 20 16V9C20 7.89543 19.1046 7 18 7H6ZM6 9.5C6 9.22386 6.22386 9 6.5 9H17.5C17.7761 9 18 9.22386 18 9.5C18 9.77614 17.7761 10 17.5 10H6.5C6.22386 10 6 9.77614 6 9.5ZM6 11.5C6 11.2239 6.22386 11 6.5 11H17.5C17.7761 11 18 11.2239 18 11.5C18 11.7761 17.7761 12 17.5 12H6.5C6.22386 12 6 11.7761 6 11.5ZM6.5 13C6.22386 13 6 13.2239 6 13.5C6 13.7761 6.22386 14 6.5 14H17.5C17.7761 14 18 13.7761 18 13.5C18 13.2239 17.7761 13 17.5 13H6.5ZM6 15.5C6 15.2239 6.22386 15 6.5 15H12.5C12.7761 15 13 15.2239 13 15.5C13 15.7761 12.7761 16 12.5 16H6.5C6.22386 16 6 15.7761 6 15.5Z" fill="#868686"/>
</svg>
