<svg width="24" height="24" viewBox="0 0 24 24" fill="none" xmlns="http://www.w3.org/2000/svg">
<path d="M11.8713 6.64313C12.8773 6.64313 13.6928 5.82758 13.6928 4.82156C13.6928 3.81554 12.8773 3 11.8713 3C10.8652 3 10.0497 3.81554 10.0497 4.82156C10.0497 5.82758 10.8652 6.64313 11.8713 6.64313Z" fill="black"/>
<path d="M13.1103 13.4431C13.4686 13.1104 13.6928 12.6353 13.6928 12.1078V10.5276L15.5853 12.7829C15.9086 13.1682 16.4831 13.2185 16.8684 12.8952C17.2537 12.5718 17.304 11.9973 16.9807 11.612L13.3967 7.34083C13.3054 7.23201 13.1941 7.14992 13.0726 7.09541C12.7519 6.81384 12.3315 6.64313 11.8713 6.64313C11.0916 6.64313 10.4264 7.13292 10.1665 7.8216L7.2131 11.3413C6.88977 11.7266 6.94004 12.3011 7.32536 12.6244C7.71069 12.9477 8.28517 12.8975 8.6085 12.5122L10.0497 10.7946V12.1078C10.0497 12.5492 10.2067 12.9539 10.4678 13.2691C10.4576 13.2822 10.4477 13.2955 10.4381 13.3093L8.78633 15.6682C8.66262 15.8449 8.61037 16.0502 8.62352 16.2499C8.57688 16.335 8.54315 16.429 8.52537 16.5298L7.92566 19.9309C7.83832 20.4263 8.16908 20.8987 8.66445 20.986C9.15982 21.0734 9.6322 20.7426 9.71955 20.2472L10.3193 16.8461C10.3317 16.7755 10.3357 16.7054 10.3319 16.6368L11.7624 14.5937L12.6619 17.065C12.6756 17.1028 12.6916 17.1391 12.7097 17.1739C12.7342 17.3329 12.8012 17.4873 12.9121 17.6195L15.132 20.2651C15.4553 20.6504 16.0298 20.7007 16.4151 20.3774C16.8005 20.054 16.8507 19.4796 16.5274 19.0942L14.4102 16.571C14.4013 16.5278 14.3891 16.4847 14.3736 16.442L13.4391 13.8745C13.3733 13.6937 13.2562 13.5464 13.1103 13.4431Z" fill="black"/>
</svg>
