<svg width="24" height="24" viewBox="0 0 24 24" fill="none" xmlns="http://www.w3.org/2000/svg">
<path d="M9.95222 4.95929C9.84331 5.36574 9.42553 5.60694 9.01908 5.49804C8.61263 5.38913 8.37142 4.97135 8.48033 4.5649C8.58924 4.15845 9.00702 3.91724 9.41347 4.02615C9.81992 4.13506 10.0611 4.55284 9.95222 4.95929Z" fill="black"/>
<path d="M9.55797 6.03682C9.37178 6.2227 9.09429 6.30697 8.82188 6.23398C8.54948 6.16099 8.3513 5.94926 8.28299 5.69519C8.19137 5.78666 8.12186 5.90274 8.08594 6.03678L5.46964 15.801C5.71969 15.7337 5.99025 15.7294 6.25834 15.8012C6.52644 15.8731 6.75858 16.0121 6.94152 16.1954L9.55783 6.43118C9.59374 6.29713 9.59158 6.16185 9.55797 6.03682Z" fill="black"/>
<path d="M5.52381 19.815C6.36539 19.815 7.04762 19.1328 7.04762 18.2912C7.04762 17.4496 6.36539 16.7674 5.52381 16.7674C4.68223 16.7674 4 17.4496 4 18.2912C4 19.1328 4.68223 19.815 5.52381 19.815Z" fill="black"/>
<path d="M18.4762 19.815C19.3178 19.815 20 19.1328 20 18.2912C20 17.4496 19.3178 16.7674 18.4762 16.7674C17.6346 16.7674 16.9524 17.4496 16.9524 18.2912C16.9524 19.1328 17.6346 19.815 18.4762 19.815Z" fill="black"/>
<path d="M7.60565 19.0531C7.73531 18.8289 7.80951 18.5687 7.80951 18.2912C7.80951 18.0136 7.73531 17.7534 7.60565 17.5293H16.3943C16.2647 17.7534 16.1905 18.0136 16.1905 18.2912C16.1905 18.5687 16.2647 18.8289 16.3943 19.0531H7.60565Z" fill="black"/>
</svg>
