<svg width="24" height="24" viewBox="0 0 24 24" fill="none" xmlns="http://www.w3.org/2000/svg">
<path d="M10.0238 22.0867C9.70186 22.0867 9.45899 21.7894 9.49287 21.4693C9.53728 21.0498 9.55166 20.5175 9.39875 20.2117C9.02439 19.463 8.52637 18.9154 8.1269 18.4761C7.85942 18.182 7.63611 17.9365 7.52372 17.7117L7.45751 17.5793C7.14875 16.9618 6.89874 15.9023 6.89874 15.212L6.89878 12.3367L11.2738 17.7117C11.2738 17.7117 11.4846 18.3475 11.6115 18.5616C11.7733 18.8343 11.8988 19.1381 11.8988 19.4552V20.8367C11.8988 21.527 11.3391 22.0867 10.6488 22.0867H10.0238Z" fill="black"/>
<path d="M6.89874 7.08668L6.89878 12.3367L11.2738 17.7117L16.6612 17.6505C17.3515 17.6505 17.9112 17.0908 17.9112 16.4005C17.9112 15.7101 17.3515 15.1505 16.6612 15.1505C17.3515 15.1505 17.9112 14.5908 17.9112 13.9005C17.9112 13.2101 17.3515 12.6505 16.6612 12.6505H15.4112C16.1015 12.6505 16.6612 12.0908 16.6612 11.4005C16.6612 10.7101 16.1015 10.1505 15.4112 10.1505H14.1612C14.8515 10.1505 15.4112 9.59084 15.4112 8.90048C15.4112 8.21013 14.8515 7.65048 14.1612 7.65048H9.16116C8.25645 7.65048 7.66081 7.26761 7.3089 7.0414C7.02389 6.8582 6.89874 6.77776 6.89874 7.08668Z" fill="black"/>
</svg>
