<svg width="24" height="24" viewBox="0 0 24 24" fill="none" xmlns="http://www.w3.org/2000/svg">
<path d="M11.2 7.2C11.2 6.75817 11.5582 6.4 12 6.4C12.4418 6.4 12.8 6.75817 12.8 7.2V11.2H15.2C15.6418 11.2 16 11.5582 16 12C16 12.4418 15.6418 12.8 15.2 12.8H12C11.5582 12.8 11.2 12.4418 11.2 12V7.2Z" fill="black"/>
<path fill-rule="evenodd" clip-rule="evenodd" d="M20 12C20 16.4183 16.4183 20 12 20C7.58172 20 4 16.4183 4 12C4 7.58172 7.58172 4 12 4C16.4183 4 20 7.58172 20 12ZM5.18903 12.8C5.55478 15.9477 8.05226 18.4452 11.2 18.811V18.4C11.2 17.9582 11.5582 17.6 12 17.6C12.4418 17.6 12.8 17.9582 12.8 18.4V18.811C15.9477 18.4452 18.4452 15.9477 18.811 12.8H18.4C17.9582 12.8 17.6 12.4418 17.6 12C17.6 11.5582 17.9582 11.2 18.4 11.2H18.811C18.4452 8.05226 15.9477 5.55478 12.8 5.18903V5.6C12.8 6.04183 12.4418 6.4 12 6.4C11.5582 6.4 11.2 6.04183 11.2 5.6V5.18903C8.05226 5.55478 5.55478 8.05226 5.18903 11.2H5.6C6.04183 11.2 6.4 11.5582 6.4 12C6.4 12.4418 6.04183 12.8 5.6 12.8H5.18903Z" fill="black"/>
</svg>
