<svg width="24" height="24" viewBox="0 0 24 24" fill="none" xmlns="http://www.w3.org/2000/svg">
<path fill-rule="evenodd" clip-rule="evenodd" d="M12.2162 19.9971C12.1444 19.999 12.0723 20 12 20C7.58172 20 4 16.4183 4 12C4 7.58172 7.58172 4 12 4C12.0723 4 12.1444 4.00096 12.2162 4.00287C12.2551 4.00096 12.2942 4 12.3333 4C12.4661 4 12.5975 4.01103 12.7273 4.03261C16.8047 4.40005 20 7.82688 20 12C20 16.1731 16.8047 19.5999 12.7273 19.9674C12.5975 19.989 12.4661 20 12.3333 20C12.2942 20 12.2551 19.999 12.2162 19.9971ZM14.8482 18.0294C15.1358 17.8933 15.4121 17.7372 15.6753 17.5629C15.5335 17.4943 15.3786 17.4298 15.2121 17.3699C15.0979 17.6026 14.9764 17.8228 14.8482 18.0294ZM16.9621 16.4523C17.8826 15.4271 18.4899 14.1151 18.6337 12.6667H16.3185C16.2671 13.8173 16.0838 14.8989 15.7965 15.8598C16.2966 16.0278 16.6959 16.2289 16.9621 16.4523ZM18.6337 11.3333C18.4888 9.87387 17.8733 8.55287 16.941 7.52428C16.673 7.74233 16.2776 7.93867 15.7854 8.1031C16.079 9.07323 16.2664 10.1679 16.3185 11.3333H18.6337ZM15.6393 6.41341C15.3869 6.24866 15.1227 6.10055 14.8482 5.97064C14.97 6.16687 15.0857 6.37546 15.1949 6.59537C15.354 6.53874 15.5025 6.47793 15.6393 6.41341ZM11.2355 5.37669C11.2681 5.37297 11.3007 5.36949 11.3333 5.36625V7.05694C10.9754 7.03753 10.6306 7.00274 10.3037 6.95438C10.5707 6.34864 10.8847 5.81641 11.2355 5.37669ZM9.61215 5.77372C9.17044 5.94322 8.75136 6.15838 8.36067 6.41341C8.57693 6.51538 8.82241 6.60807 9.0923 6.68966C9.25155 6.35862 9.42547 6.05215 9.61215 5.77372ZM7.05905 7.52428C6.12673 8.55287 5.51115 9.87387 5.36625 11.3333H8.01483C8.06523 10.2055 8.24236 9.14397 8.51986 8.19744C7.88494 8.01598 7.38037 7.78574 7.05905 7.52428ZM5.36625 12.6667C5.51006 14.1151 6.11744 15.4271 7.03793 16.4523C7.35624 16.1852 7.86507 15.9499 8.50888 15.7649C8.23768 14.8279 8.06456 13.7796 8.01483 12.6667H5.36625ZM8.32468 17.5629C8.72558 17.8283 9.15685 18.0516 9.61215 18.2263C9.41878 17.9379 9.23911 17.6194 9.07524 17.2747C8.79703 17.3596 8.54506 17.4563 8.32468 17.5629ZM13.1401 18.5696C12.9841 18.5964 12.8262 18.6179 12.6667 18.6337V16.9022C13.1464 16.9282 13.6027 16.9819 14.0238 17.0588C13.7689 17.6347 13.4714 18.1437 13.1401 18.5696ZM11.3333 18.6337C11.3007 18.6305 11.2681 18.627 11.2355 18.6233C10.8773 18.1743 10.5575 17.6289 10.2869 17.0073C10.6188 16.9576 10.9693 16.9219 11.3333 16.9022V18.6337ZM12.6667 5.36625C12.8262 5.38209 12.9841 5.40356 13.1401 5.43045C13.4641 5.84696 13.7558 6.34306 14.007 6.90339C13.5905 6.97868 13.1401 7.03127 12.6667 7.05694V5.36625ZM14.9852 12.6667C14.9392 13.6947 14.788 14.6675 14.5515 15.5485C13.9787 15.4448 13.3423 15.375 12.6667 15.347V12.6667H14.9852ZM14.5409 8.41258C14.7835 9.30376 14.9386 10.2902 14.9852 11.3333H12.6667V8.61214C13.3382 8.58437 13.9709 8.5152 14.5409 8.41258ZM9.77812 8.4655C9.54372 9.34275 9.39386 10.3108 9.34817 11.3333H11.3333V8.61214C10.7847 8.58945 10.2619 8.53913 9.77812 8.4655ZM9.34817 12.6667C9.39318 13.674 9.53928 14.6284 9.7677 15.4952C10.2544 15.4207 10.7808 15.3699 11.3333 15.347V12.6667H9.34817Z" fill="black"/>
</svg>
