<svg width="24" height="24" viewBox="0 0 24 24" fill="none" xmlns="http://www.w3.org/2000/svg">
<path d="M10.0238 3.92926C9.70186 3.92926 9.45899 4.22654 9.49287 4.54664C9.53728 4.96614 9.55166 5.49846 9.39875 5.80426C9.02439 6.55294 8.52637 7.10055 8.1269 7.53981C7.85942 7.83394 7.63611 8.07948 7.52372 8.30426L7.45751 8.43667C7.14875 9.05415 6.89874 10.1136 6.89874 10.804L6.89878 13.6793C6.89878 13.6793 8.88392 13.7602 9.39872 13.5543C9.42423 13.5441 9.4494 13.534 9.47425 13.5241C10.3859 13.16 10.8566 12.972 11.2737 12.0543C11.6114 11.3114 11.4852 10.6849 11.354 10.0334C11.2464 9.49966 11.1356 8.94917 11.2738 8.30426C11.3477 7.95924 11.4846 7.66843 11.6115 7.45438C11.7733 7.18162 11.8988 6.87786 11.8988 6.56077V5.17926C11.8988 4.4889 11.3391 3.92926 10.6488 3.92926H10.0238Z" fill="black"/>
<path d="M6.89874 18.9293V13.8918C8.14874 13.9293 9.26837 13.8825 9.77659 13.6793C10.7381 13.2947 11.2231 12.747 11.6516 11.8043C11.9158 11.2229 11.8195 10.7864 11.7116 10.2972C11.6133 9.85147 11.3475 9.36196 11.4937 8.67926C11.5174 8.56886 11.5271 8.46402 11.5612 8.36546H16.6612C17.3515 8.36546 17.9112 8.9251 17.9112 9.61546C17.9112 10.3058 17.3515 10.8655 16.6612 10.8655C17.3515 10.8655 17.9112 11.4251 17.9112 12.1155C17.9112 12.8058 17.3515 13.3655 16.6612 13.3655H15.4112C16.1015 13.3655 16.6612 13.9251 16.6612 14.6155C16.6612 15.3058 16.1015 15.8655 15.4112 15.8655H14.1612C14.8515 15.8655 15.4112 16.4251 15.4112 17.1155C15.4112 17.8058 14.8515 18.3655 14.1612 18.3655H9.16116C8.25645 18.3655 7.66081 18.7483 7.3089 18.9745C7.02389 19.1577 6.89874 19.2382 6.89874 18.9293Z" fill="black"/>
</svg>
