<svg width="24" height="24" viewBox="0 0 24 24" fill="none" xmlns="http://www.w3.org/2000/svg">
<path fill-rule="evenodd" clip-rule="evenodd" d="M7.5 16C8.5 17 11 18.5 12 19C13 18.5 15.5 17 16.5 16C18 14.5 19 13.2091 19 11C19 8.79086 17.2091 7 15 7C13.8053 7 12.7329 7.52376 12 8.35418C11.2671 7.52376 10.1947 7 9 7C6.79086 7 5 8.79086 5 11C5 13.2091 6 14.5 7.5 16ZM8.5 15.5C9.35714 16.3333 11.1429 17.5833 12 18C12.8571 17.5833 14.6429 16.3333 15.5 15.5C16.7857 14.25 18 12.8409 18 11C18 9.15905 16.8935 8 15 8C13.976 8 12.6282 9.05798 12 9.75C11.3718 9.05798 10.024 8 9 8C7.10645 8 6 9.15905 6 11C6 12.8409 7.21429 14.25 8.5 15.5Z" fill="#868686"/>
</svg>
