<svg width="24" height="24" viewBox="0 0 24 24" fill="none" xmlns="http://www.w3.org/2000/svg">
<path d="M10.8989 6L10.8988 6.02897C10.0407 6.60805 9.44717 7.54923 9.33731 8.63333C8.91025 8.8671 8.42011 9 7.89893 9C6.24207 9 4.89893 7.65685 4.89893 6C4.89893 4.34315 6.24207 3 7.89893 3C9.55578 3 10.8989 4.34315 10.8989 6Z" fill="black"/>
<path d="M13.9296 5.56918C15.3959 6.00926 16.4666 7.36408 16.4788 8.97081C16.6161 8.99005 16.7563 9 16.8989 9C18.5558 9 19.8989 7.65685 19.8989 6C19.8989 4.34315 18.5558 3 16.8989 3C15.3884 3 14.1386 4.11643 13.9296 5.56918Z" fill="black"/>
<path d="M7.89893 10C8.42603 10 8.92932 9.89805 9.39016 9.71278C9.53162 10.4115 9.87654 11.0364 10.3604 11.523C8.3013 11.7292 6.64489 13.3018 6.31134 15.3207C6.44742 15.8843 6.65311 16.4207 6.9188 16.9203C4.43119 16.5116 2.45882 14.5729 2 12.1025C2.36402 10.5146 3.67316 9.28721 5.30377 9.04398C6.00233 9.64011 6.9086 10 7.89893 10Z" fill="black"/>
<path d="M19.6688 15.2094C19.5659 15.6694 19.4168 16.1119 19.2266 16.5318C21.0577 15.7604 22.4257 14.1064 22.7978 12.1025C22.4338 10.5146 21.1247 9.28722 19.4941 9.04398C18.7955 9.64011 17.8893 10 16.8989 10C16.7119 10 16.5279 9.98717 16.3477 9.96233C16.1829 10.5533 15.8702 11.0827 15.4521 11.5081C17.5591 11.6324 19.2823 13.1838 19.6688 15.2094Z" fill="black"/>
<path d="M15.8989 9C15.8989 10.6569 14.5558 12 12.8989 12C11.2421 12 9.89893 10.6569 9.89893 9C9.89893 7.34315 11.2421 6 12.8989 6C14.5558 6 15.8989 7.34315 15.8989 9Z" fill="black"/>
<path d="M10.3038 12.044C8.67316 12.2872 7.36402 13.5146 7 15.1025C7.51765 17.8896 9.96183 20 12.8989 20C15.836 20 18.2802 17.8896 18.7978 15.1025C18.4338 13.5146 17.1247 12.2872 15.4941 12.044C14.7955 12.6401 13.8893 13 12.8989 13C11.9086 13 11.0023 12.6401 10.3038 12.044Z" fill="black"/>
</svg>
