<svg width="24" height="24" viewBox="0 0 24 24" fill="none" xmlns="http://www.w3.org/2000/svg">
<path d="M11.8989 11C13.5558 11 14.8989 9.65685 14.8989 8C14.8989 6.34315 13.5558 5 11.8989 5C10.2421 5 8.89893 6.34315 8.89893 8C8.89893 9.65685 10.2421 11 11.8989 11Z" fill="black"/>
<path d="M6 14.1025C6.36402 12.5146 7.67316 11.2872 9.30377 11.044C10.0023 11.6401 10.9086 12 11.8989 12C12.8893 12 13.7955 11.6401 14.4941 11.044C16.1247 11.2872 17.4338 12.5146 17.7978 14.1025C17.2802 16.8896 14.836 19 11.8989 19C8.96183 19 6.51765 16.8896 6 14.1025Z" fill="black"/>
</svg>
